# xmcd
#
# Track frame offsets: 
#        150
#        16640
#        29087
#        48388
#        62885
#        78590
#        93843
#        107462
#        123659
#        141775
#        158724
#        174436
#        190289
#        203453
#
# Disc length: 2952 seconds
#
# Revision: 0
# Processed by: cddbd v1.5.2PL0 Copyright (c) Steve Scherf et al.
# Submitted via: ExactAudioCopy v0.95a5
#
DISCID=b20b860e
DTITLE=Hepchaps - Swingin' On Nothing
DYEAR=2009
DGENRE=New Swing
TTITLE0=Swingin' On Nothing
TTITLE1=Tikle Toe
TTITLE2=Cherokee
TTITLE3=S'Wonderful
TTITLE4=The Lady Is A Tramp
TTITLE5=One For Press
TTITLE6=Easy To Dance With
TTITLE7=The DIV Song
TTITLE8=Summertime
TTITLE9=Cape Cod
TTITLE10=Into It
TTITLE11=Lady Be Good
TTITLE12=Spook's Holiday
TTITLE13=Hit That Jive Jack
EXTD=
EXTT0=
EXTT1=
EXTT2=
EXTT3=
EXTT4=
EXTT5=
EXTT6=
EXTT7=
EXTT8=
EXTT9=
EXTT10=
EXTT11=
EXTT12=
EXTT13=
PLAYORDER=
